<?xml version="1.0" encoding="UTF-8" standalone="no"?>
<!-- Created with Inkscape (http://www.inkscape.org/) -->

<svg
   xmlns:dc="http://purl.org/dc/elements/1.1/"
   xmlns:cc="http://creativecommons.org/ns#"
   xmlns:rdf="http://www.w3.org/1999/02/22-rdf-syntax-ns#"
   xmlns:svg="http://www.w3.org/2000/svg"
   xmlns="http://www.w3.org/2000/svg"
   xmlns:xlink="http://www.w3.org/1999/xlink"
   xmlns:sodipodi="http://sodipodi.sourceforge.net/DTD/sodipodi-0.dtd"
   xmlns:inkscape="http://www.inkscape.org/namespaces/inkscape"
   width="738.375"
   height="740.21637"
   id="svg2"
   version="1.1"
   inkscape:version="0.48.1 r9760"
   sodipodi:docname="Places.svg"
   inkscape:export-filename="/home/jaragunde/projects/qt-projects/Places/Places80.png"
   inkscape:export-xdpi="9.75"
   inkscape:export-ydpi="9.75">
  <defs
     id="defs4">
    <linearGradient
       inkscape:collect="always"
       id="linearGradient4063">
      <stop
         style="stop-color:#174702;stop-opacity:1;"
         offset="0"
         id="stop4065" />
      <stop
         style="stop-color:#36b400;stop-opacity:1;"
         offset="1"
         id="stop4067" />
    </linearGradient>
    <linearGradient
       id="linearGradient3783">
      <stop
         id="stop3785"
         offset="0"
         style="stop-color:#000000;stop-opacity:0;" />
      <stop
         id="stop3787"
         offset="1"
         style="stop-color:#fffafa;stop-opacity:1;" />
    </linearGradient>
    <linearGradient
       id="linearGradient3767">
      <stop
         style="stop-color:#ffffff;stop-opacity:1;"
         offset="0"
         id="stop3769" />
      <stop
         style="stop-color:#ffffff;stop-opacity:0;"
         offset="1"
         id="stop3771" />
    </linearGradient>
    <radialGradient
       inkscape:collect="always"
       xlink:href="#linearGradient3783"
       id="radialGradient3781"
       cx="352.85715"
       cy="715.2193"
       fx="352.85715"
       fy="715.2193"
       r="184.28572"
       gradientTransform="matrix(1,0,0,0.13953487,0,615.42126)"
       gradientUnits="userSpaceOnUse" />
    <radialGradient
       inkscape:collect="always"
       xlink:href="#linearGradient3783"
       id="radialGradient3846"
       cx="332.85715"
       cy="530.93359"
       fx="332.85715"
       fy="530.93359"
       r="219.07143"
       gradientUnits="userSpaceOnUse" />
    <linearGradient
       inkscape:collect="always"
       xlink:href="#linearGradient4063"
       id="linearGradient4069"
       x1="-16.892641"
       y1="406.75378"
       x2="721.48804"
       y2="406.75378"
       gradientUnits="userSpaceOnUse"
       gradientTransform="matrix(0,-1,1,0,-54.45607,759.05148)" />
    <linearGradient
       inkscape:collect="always"
       xlink:href="#linearGradient4063"
       id="linearGradient4079"
       x1="-88.888885"
       y1="407.91776"
       x2="808.08081"
       y2="407.91776"
       gradientUnits="userSpaceOnUse"
       gradientTransform="matrix(0.83500487,0,0,0.9183382,51.023221,32.147352)" />
    <linearGradient
       inkscape:collect="always"
       xlink:href="#linearGradient4063"
       id="linearGradient4085"
       gradientUnits="userSpaceOnUse"
       gradientTransform="matrix(0.83500487,0,0,0.9183382,51.023221,32.147352)"
       x1="-88.888885"
       y1="407.91776"
       x2="808.08081"
       y2="407.91776" />
    <linearGradient
       inkscape:collect="always"
       xlink:href="#linearGradient4063"
       id="linearGradient4088"
       gradientUnits="userSpaceOnUse"
       gradientTransform="matrix(0,-0.83500487,0.9183382,0,-22.306952,708.02247)"
       x1="-88.888885"
       y1="407.91776"
       x2="808.08081"
       y2="407.91776" />
    <radialGradient
       inkscape:collect="always"
       xlink:href="#linearGradient3783"
       id="radialGradient3005"
       gradientUnits="userSpaceOnUse"
       cx="332.85715"
       cy="530.93359"
       fx="332.85715"
       fy="530.93359"
       r="219.07143" />
    <radialGradient
       inkscape:collect="always"
       xlink:href="#linearGradient3783-0"
       id="radialGradient3005-2"
       gradientUnits="userSpaceOnUse"
       cx="332.85715"
       cy="530.93359"
       fx="332.85715"
       fy="530.93359"
       r="219.07143" />
    <linearGradient
       id="linearGradient3783-0">
      <stop
         id="stop3785-5"
         offset="0"
         style="stop-color:#000000;stop-opacity:0;" />
      <stop
         id="stop3787-7"
         offset="1"
         style="stop-color:#fffafa;stop-opacity:1;" />
    </linearGradient>
    <radialGradient
       r="219.07143"
       fy="530.93359"
       fx="332.85715"
       cy="530.93359"
       cx="332.85715"
       gradientUnits="userSpaceOnUse"
       id="radialGradient3063"
       xlink:href="#linearGradient3783-0"
       inkscape:collect="always" />
  </defs>
  <sodipodi:namedview
     id="base"
     pagecolor="#ffffff"
     bordercolor="#666666"
     borderopacity="1.0"
     inkscape:pageopacity="0"
     inkscape:pageshadow="2"
     inkscape:zoom="0.495"
     inkscape:cx="186.51414"
     inkscape:cy="339.08082"
     inkscape:document-units="px"
     inkscape:current-layer="layer1"
     showgrid="false"
     inkscape:snap-center="true"
     inkscape:window-width="1366"
     inkscape:window-height="710"
     inkscape:window-x="0"
     inkscape:window-y="26"
     inkscape:window-maximized="1"
     fit-margin-top="0"
     fit-margin-left="0"
     fit-margin-right="0"
     fit-margin-bottom="0" />
  <metadata
     id="metadata7">
    <rdf:RDF>
      <cc:Work
         rdf:about="">
        <dc:format>image/svg+xml</dc:format>
        <dc:type
           rdf:resource="http://purl.org/dc/dcmitype/StillImage" />
        <dc:title />
      </cc:Work>
    </rdf:RDF>
  </metadata>
  <g
     inkscape:label="Capa 1"
     inkscape:groupmode="layer"
     id="layer1"
     transform="translate(16.891812,-36.641804)">
    <g
       id="g4041"
       style="fill:#000000"
       transform="matrix(2.9532595,0,0,2.9532595,-1282.4358,-11.33852)" />
    <path
       style="fill:url(#linearGradient4088);fill-opacity:1;stroke:none"
       d="m -16.891804,404.7332 c 0.0036,106.62799 0.21854,109.47282 12.2500003,158 1.61086,6.49717 3.97712005,17.51735 5.25000005,24.5 1.27288995,6.98264 3.84900995,14.224 5.71874995,16.09375 1.86977,1.86975 3.39725,5.48235 3.40625,8 0.02377,7.54413 19.9085097,43.88466 33.7499997,61.71875 17.43501,22.46416 55.0366,56.5625 62.406254,56.5625 1.26267,0 4.4044,1.77115 6.96875,3.96875 5.11333,4.38205 53.38914,24.08523 65.1875,26.59375 4.06073,0.86337 13.37819,2.86035 20.6875,4.46875 51.45166,11.32179 62.44414,12.21875 153.5625,12.21875 91.11836,0 102.11082,-0.89696 153.5625,-12.21875 7.30932,-1.6084 16.62677,-3.60538 20.6875,-4.46875 11.79836,-2.50852 60.07417,-22.2117 65.1875,-26.59375 2.56434,-2.1976 5.70609,-3.96875 6.96875,-3.96875 7.36965,0 45.00249,-34.09834 62.4375,-56.5625 13.84148,-17.83409 33.69515,-54.17462 33.71875,-61.71875 0.008,-2.51765 1.53649,-6.13025 3.40625,-8 1.86974,-1.86975 4.44587,-9.11111 5.71875,-16.09375 1.27289,-6.98265 3.63914,-18.00283 5.25,-24.5 12.03149,-48.52718 12.247,-51.37201 12.25,-158 0.003,-85.0042 -0.83101,-107.58939 -4.4375,-119.34375 -2.44646,-7.97354 -4.5049,-19.26079 -4.5625,-25.09375 -0.0575,-5.83295 -1.99117,-13.93926 -4.3125,-18 -2.32132,-4.06073 -4.28615,-11.15898 -4.34375,-15.78125 -0.0576,-4.62226 -1.91316,-11.93866 -4.15625,-16.25 -2.24309,-4.31135 -7.18967,-15.12889 -10.96875,-24.0625 -13.96514,-33.01327 -38.50464,-64.70065 -67.28125,-86.843754 -17.0769,-13.14035 -54.87209,-34.25 -61.3125,-34.25 -1.96283,0 -7.30782,-1.87521 -11.90625,-4.15625 -10.91462,-5.41418 -30.4391,-10.40566 -53.53125,-13.6875 -1.01506,-0.14426 -2.02874,-0.28015 -3.03125,-0.4375 -5.17775,-1.13362 -10.51754,-2.22972 -15.4375,-3.125 -1.7631,-0.48656 -3.11024,-0.9489 -3.6875,-1.3125 -1.96409,-1.23712 -14.84976,-3.16731 -28.65625,-4.28125 -39.76162,-3.20804 -197.90378,-0.71726 -208.1875,3.28125 -1.78102,0.6925 -4.52237,1.50852 -7.75,2.3125 -6.78952,1.03665 -13.06312,2.25274 -19.15625,3.71875 -9.73941,1.40847 -23.48381,4.07257 -30.71875,5.96875 -13.21841,3.46438 -16.22903,4.62021 -47.25,17.84375 -49.527444,21.1125 -94.050044,65.665124 -114.906254,114.968754 -3.77908,8.93361 -8.6944097,19.75115 -10.9374997,24.0625 -2.24309,4.31134 -4.12989995,11.62774 -4.18749995,16.25 -0.05752,4.62227 -2.02243005,11.72052 -4.34375005,15.78125 -2.32132,4.06074 -4.2549,12.16705 -4.3125,18 -0.05756,5.83296 -2.1160503,17.12021 -4.5625003,25.09375 -3.60649,11.75436 -4.4405,34.33955 -4.4375,119.34375 z"
       id="rect4071"
       inkscape:connector-curvature="0"
       inkscape:export-filename="/home/jaragunde/projects/qt-projects/Places/Places64.png"
       inkscape:export-xdpi="7.8000002"
       inkscape:export-ydpi="7.8000002" />
    <g
       id="g3084"
       transform="matrix(0.70710678,-0.70710678,0.70710678,0.70710678,-124.5121,366.40356)">
      <path
         id="path3002"
         transform="translate(-16.891812,36.641804)"
         d="m 363.1875,61.59375 c -120.98488,0 -219.0625,99.08044 -219.0625,221.28125 0,122.20081 98.07762,221.25 219.0625,221.25 120.98488,0 219.0625,-99.04919 219.0625,-221.25 0,-122.20081 -98.07762,-221.28125 -219.0625,-221.28125 z m 0,150.46875 c 39.10423,0 70.78125,31.70827 70.78125,70.8125 0,39.10423 -31.67702,70.78125 -70.78125,70.78125 -39.10423,0 -70.8125,-31.67702 -70.8125,-70.78125 0,-39.10423 31.70827,-70.8125 70.8125,-70.8125 z"
         style="fill:#ffffff;fill-rule:evenodd;stroke:none"
         inkscape:connector-curvature="0" />
      <path
         id="rect3009"
         transform="translate(-16.891812,36.641804)"
         d="m 144,282.875 0,221.15625 219.1875,0 0,-150.375 c -39.09379,0 -70.79558,-31.69141 -70.8125,-70.78125 l -148.375,0 z"
         style="fill:#ffffff;fill-rule:evenodd;stroke:none"
         inkscape:connector-curvature="0" />
    </g>
    <path
       style="fill:none;stroke:#ffffff;stroke-width:7.39192104px;stroke-linecap:butt;stroke-linejoin:miter;stroke-opacity:1"
       d="m 199.97881,673.46245 292.60808,0"
       id="path3090"
       inkscape:connector-curvature="0" />
  </g>
</svg>
